<svg width="26" height="27" viewBox="0 0 26 27" fill="none" xmlns="http://www.w3.org/2000/svg">
<path d="M6.78349 3.64234L5.43536 14.11C5.24495 14.8492 5.54961 16.6603 8.29154 17.991C10.1195 18.8781 10.5765 20.9479 10.5765 21.872C10.5765 24.9767 12.4806 25.7529 13.4327 25.7529C16.6316 25.7529 17.0505 23.1656 16.8601 21.872L15.9582 17.0577C15.8332 16.3902 16.3453 15.7733 17.0244 15.7733H21.8011C23.9278 15.7733 25.483 13.7668 24.9525 11.7073L23.7149 6.90246C21.8869 2.46705 17.6217 0.988586 15.7176 0.803778H10.0111C8.37451 0.803778 6.99254 2.01918 6.78349 3.64234Z" stroke="#898989" stroke-width="1.5"/>
<path d="M1.37966 14.7867L2.24754 14.8611C2.22754 15.0842 2.12234 15.2911 1.95379 15.4387C1.78524 15.5864 1.5663 15.6634 1.34244 15.6538C1.11858 15.6443 0.907009 15.5488 0.751676 15.3873C0.596342 15.2259 0.509182 15.0108 0.508301 14.7867H1.37966ZM3.37682 1.80806L2.24754 14.8611L0.511786 14.7123L1.63991 1.65819L3.37682 1.80806ZM2.25102 1.68375V14.7879L0.508301 14.7867V1.68375H2.25102ZM1.63991 1.65819C1.63636 1.70041 1.64164 1.74291 1.6554 1.78298C1.66916 1.82306 1.69111 1.85983 1.71984 1.89097C1.74857 1.92211 1.78347 1.94693 1.82231 1.96386C1.86116 1.98079 1.9031 1.98945 1.94547 1.9893V0.246582C2.78894 0.246582 3.44885 0.969231 3.37682 1.80806L1.63991 1.65819ZM1.94547 1.9893C2.0265 1.9893 2.10422 1.95711 2.16153 1.89981C2.21883 1.84251 2.25102 1.76479 2.25102 1.68375H0.508301C0.508301 0.891389 1.15078 0.246582 1.94547 0.246582V1.9893Z" fill="#898989"/>
</svg>
