<svg width="26" height="26" viewBox="0 0 26 26" fill="none" xmlns="http://www.w3.org/2000/svg">
<path d="M6.27519 22.1106L4.92706 11.6429C4.73665 10.9037 5.04131 9.09258 7.78324 7.76196C9.61119 6.87488 10.0682 4.80502 10.0682 3.88098C10.0682 0.776196 11.9723 0 12.9244 0C16.1233 0 16.5422 2.58732 16.3518 3.88098L15.4499 8.69518C15.3249 9.3627 15.837 9.97966 16.5161 9.97966H21.2928C23.4195 9.97966 24.9747 11.9862 24.4442 14.0456L23.2066 18.8505C21.3786 23.2859 17.1134 24.7643 15.2093 24.9492H9.50277C7.86621 24.9492 6.48424 23.7338 6.27519 22.1106Z" fill="#898989"/>
<path d="M0.871361 10.9662L1.73924 10.8919C1.71924 10.6687 1.61403 10.4618 1.44549 10.3142C1.27694 10.1666 1.05799 10.0895 0.834136 10.0991C0.610277 10.1087 0.398709 10.2041 0.243375 10.3656C0.088041 10.5271 0.000881378 10.7422 0 10.9662H0.871361ZM2.86852 23.9449L1.73924 10.8919L0.00348547 11.0406L1.13161 24.0947L2.86852 23.9449ZM1.74272 24.0692V10.9651L0 10.9662V24.0692H1.74272ZM1.13161 24.0947C1.12806 24.0525 1.13334 24.01 1.1471 23.9699C1.16086 23.9299 1.1828 23.8931 1.21154 23.862C1.24027 23.8308 1.27517 23.806 1.31401 23.7891C1.35286 23.7721 1.39479 23.7635 1.43717 23.7636V25.5063C2.28064 25.5063 2.94055 24.7837 2.86852 23.9449L1.13161 24.0947ZM1.43717 23.7636C1.5182 23.7636 1.59592 23.7958 1.65323 23.8531C1.71053 23.9104 1.74272 23.9881 1.74272 24.0692H0C0 24.8615 0.642484 25.5063 1.43717 25.5063V23.7636Z" fill="#898989"/>
</svg>
