<svg width="26" height="26" viewBox="0 0 26 26" fill="none" xmlns="http://www.w3.org/2000/svg">
<path d="M6.78349 3.39576L5.43536 13.8634C5.24495 14.6026 5.54961 16.4138 8.29154 17.7444C10.1195 18.6315 10.5765 20.7013 10.5765 21.6254C10.5765 24.7302 12.4806 25.5063 13.4327 25.5063C16.6316 25.5063 17.0505 22.919 16.8601 21.6254L15.9582 16.8112C15.8332 16.1436 16.3453 15.5267 17.0244 15.5267H21.8011C23.9278 15.5267 25.483 13.5202 24.9525 11.4607L23.7149 6.65588C21.8869 2.22047 17.6217 0.742004 15.7176 0.557196H10.0111C8.37451 0.557196 6.99254 1.7726 6.78349 3.39576Z" fill="#898989"/>
<path d="M1.37966 14.5401L2.24754 14.6145C2.22754 14.8376 2.12234 15.0445 1.95379 15.1922C1.78524 15.3398 1.5663 15.4168 1.34244 15.4073C1.11858 15.3977 0.907009 15.3022 0.751676 15.1408C0.596342 14.9793 0.509182 14.7642 0.508301 14.5401H1.37966ZM3.37682 1.56148L2.24754 14.6145L0.511786 14.4658L1.63991 1.41161L3.37682 1.56148ZM2.25102 1.43717V14.5413L0.508301 14.5401V1.43717H2.25102ZM1.63991 1.41161C1.63636 1.45383 1.64164 1.49633 1.6554 1.5364C1.66916 1.57647 1.69111 1.61325 1.71984 1.64439C1.74857 1.67553 1.78347 1.70035 1.82231 1.71728C1.86116 1.73421 1.9031 1.74287 1.94547 1.74272V0C2.78894 0 3.44885 0.722649 3.37682 1.56148L1.63991 1.41161ZM1.94547 1.74272C2.0265 1.74272 2.10422 1.71053 2.16153 1.65323C2.21883 1.59592 2.25102 1.5182 2.25102 1.43717H0.508301C0.508301 0.644807 1.15078 0 1.94547 0V1.74272Z" fill="#898989"/>
</svg>
