<svg width="18" height="19" viewBox="0 0 18 19" fill="none" xmlns="http://www.w3.org/2000/svg">
<path d="M17.5 9.5C17.5 13.2916 15.017 16.5046 11.5871 17.5993C10.772 17.8594 9.90289 18 9 18C8.0971 18 7.22801 17.8594 6.41289 17.5993L6.26087 18.0756L6.41288 17.5993C6.16133 17.519 5.91486 17.4273 5.67407 17.3248C2.63161 16.0299 0.5 13.0133 0.5 9.5C0.5 5.9867 2.63161 2.97012 5.67407 1.67519C5.91486 1.57271 6.16133 1.48102 6.41289 1.40074C7.22801 1.1406 8.0971 1 9 1C9.90289 1 10.772 1.1406 11.5871 1.40074C15.017 2.49537 17.5 5.70837 17.5 9.5Z" stroke="#898989"/>
</svg>
