<svg width="26" height="27" viewBox="0 0 26 27" fill="none" xmlns="http://www.w3.org/2000/svg">
<path d="M6.27519 23.3572L4.92706 12.8895C4.73665 12.1503 5.04131 10.3392 7.78324 9.00854C9.61119 8.12146 10.0682 6.0516 10.0682 5.12756C10.0682 2.02278 11.9723 1.24658 12.9244 1.24658C16.1233 1.24658 16.5422 3.8339 16.3518 5.12756L15.4499 9.94177C15.3249 10.6093 15.837 11.2262 16.5161 11.2262H21.2928C23.4195 11.2262 24.9747 13.2327 24.4442 15.2922L23.2066 20.0971C21.3786 24.5325 17.1134 26.0109 15.2093 26.1957H9.50277C7.86621 26.1957 6.48424 24.9803 6.27519 23.3572Z" stroke="#898989" stroke-width="1.5"/>
<path d="M0.871361 12.2128L1.73924 12.1385C1.71924 11.9153 1.61403 11.7084 1.44549 11.5608C1.27694 11.4131 1.05799 11.3361 0.834136 11.3457C0.610277 11.3552 0.398709 11.4507 0.243375 11.6122C0.088041 11.7736 0.000881378 11.9888 0 12.2128H0.871361ZM2.86852 25.1915L1.73924 12.1385L0.00348547 12.2872L1.13161 25.3413L2.86852 25.1915ZM1.74272 25.3158V12.2117L0 12.2128V25.3158H1.74272ZM1.13161 25.3413C1.12806 25.2991 1.13334 25.2566 1.1471 25.2165C1.16086 25.1765 1.1828 25.1397 1.21154 25.1085C1.24027 25.0774 1.27517 25.0526 1.31401 25.0357C1.35286 25.0187 1.39479 25.0101 1.43717 25.0102V26.7529C2.28064 26.7529 2.94055 26.0303 2.86852 25.1915L1.13161 25.3413ZM1.43717 25.0102C1.5182 25.0102 1.59592 25.0424 1.65323 25.0997C1.71053 25.157 1.74272 25.2347 1.74272 25.3158H0C0 26.1081 0.642484 26.7529 1.43717 26.7529V25.0102Z" fill="#898989"/>
</svg>
